<svg xmlns="http://www.w3.org/2000/svg" viewBox="0 0 97.27 142.81"><defs><style>.cls-1{fill:#323232;}</style></defs><g id="Capa_2" data-name="Capa 2"><g id="Iconos"><g id="Expan_id" data-name="Expan id"><g id="_1" data-name="1"><path class="cls-1" d="M93.27,0H4A4,4,0,0,0,0,4V138.81a4,4,0,0,0,4,4H93.27a4,4,0,0,0,4-4V4A4,4,0,0,0,93.27,0Zm-4,134.81H8V8H89.27Z"/><path class="cls-1" d="M18.53,28.85H79.24a4,4,0,0,0,0-8H18.53a4,4,0,0,0,0,8Z"/><path class="cls-1" d="M18.53,47.47H79.24a4,4,0,0,0,0-8H18.53a4,4,0,0,0,0,8Z"/><path class="cls-1" d="M18.53,66.09H79.24a4,4,0,0,0,0-8H18.53a4,4,0,0,0,0,8Z"/><path class="cls-1" d="M18.53,84.71H79.24a4,4,0,0,0,0-8H18.53a4,4,0,0,0,0,8Z"/><path class="cls-1" d="M18.53,103.34H79.24a4,4,0,0,0,0-8H18.53a4,4,0,0,0,0,8Z"/><path class="cls-1" d="M18.53,122H79.24a4,4,0,0,0,0-8H18.53a4,4,0,0,0,0,8Z"/></g></g></g></g></svg>